<svg width="200" height="200" viewBox="0 0 200 200" fill="none" xmlns="http://www.w3.org/2000/svg">
  <!-- Large Bat -->
  <path d="M100 120C105 120 113 118 119 116C125 114 135 110 140 108C145 106 153 102 157 100C161 98 168 94 171 92C174 90 178 87 180 86C182 85 185 83 186 82C187 81 189 79 190 78C191 77 192 75 193 73C194 71 195 69 195 67C195 65 194 62 193 60C192 58 190 55 188 54C186 53 183 52 180 52C177 52 173 53 170 55C167 57 162 60 160 62C158 64 154 67 152 69C150 71 148 74 146 76C144 78 141 81 139 83C137 85 135 87 133 88C131 89 127 91 125 92C123 93 119 94 117 94C115 94 111 93 109 92C107 91 103 89 101 88C99 87 95 83 93 81C91 79 87 76 85 74C83 72 79 69 77 67C75 65 71 62 69 60C67 58 64 55 62 53C60 51 56 48 54 46C52 44 49 43 47 42C45 41 42 40 40 40C38 40 35 41 33 43C31 45 30 47 30 50C30 53 31 58 32 61C33 64 35 68 36 70C37 72 40 76 42 78C44 80 47 83 49 85C51 87 55 90 58 92C61 94 67 98 71 100C75 102 83 106 88 108C93 110 102 114 108 116C114 118 122 120 127 120C132 120 100 120 100 120Z"
    stroke="black" stroke-width="2" fill="black"/>

  <!-- Small Bat 1 -->
  <path d="M50 50C52 50 54 51 56 52C58 53 62 55 64 57C66 59 70 62 72 64C74 66 77 69 78 71C79 73 80 76 80 77C80 78 79 80 78 81C77 82 75 83 73 83C71 83 68 82 66 81C64 80 60 78 58 76C56 74 53 71 51 69C49 67 47 64 46 62C45 60 44 58 44 56C44 54 45 52 46 51C47 50 49 50 51 50C53 50 50 50 50 50Z"
    stroke="black" stroke-width="1" fill="black"/>

  <!-- Small Bat 2 -->
  <path d="M150 40C152 40 154 41 156 42C158 43 162 45 164 47C166 49 170 52 172 54C174 56 177 59 178 61C179 63 180 66 180 67C180 68 179 70 178 71C177 72 175 73 173 73C171 73 168 72 166 71C164 70 160 68 158 66C156 64 153 61 151 59C149 57 147 54 146 52C145 50 144 48 144 46C144 44 145 42 146 41C147 40 149 40 151 40C153 40 150 40 150 40Z"
    stroke="black" stroke-width="1" fill="black"/>
</svg>
