<svg width="200" height="200" viewBox="0 0 200 200" fill="none" xmlns="http://www.w3.org/2000/svg">
  <path d="M99 40C99.5 40 102 40.5 103 41C104 41.5 112.5 48 115 50C117.5 52 122 56.5 124 58.5C126 60.5 128.5 63.5 129.5 65C130.5 66.5 133.5 71.5 135 74C136.5 76.5 142 87.5 143 91C144 94.5 145 97 145 98.5C145 100 144.5 101.5 144 103.5C143.5 105.5 139 113 137 115.5C135 118 129 126 127 128.5C125 131 115 140.5 112 143C109 145.5 104.5 149 102 150C99.5 151 97.5 151.5 96 151.5C94.5 151.5 92.5 151 90.5 150C88.5 149 83.5 145 81 142.5C78.5 140 71 133 68.5 130C66 127 64 124.5 63 122.5C62 120.5 60 117 58.5 114C57 111 55.5 106.5 55 103.5C54.5 100.5 54.5 97.5 55 96C55.5 94.5 57 92 58 90C59 88 63 81.5 64.5 79C66 76.5 70 71 72 68.5C74 66 78.5 62 81 60C83.5 58 88 54.5 90.5 53C93 51.5 96.5 50 99 50"
    stroke="black" stroke-width="5" fill="black"/>
</svg>
