<svg width="200" height="200" viewBox="0 0 200 200" fill="none" xmlns="http://www.w3.org/2000/svg">
  <path d="M100 70C110 70 120 73 126 76C132 79 139 84 143 88C147 92 151 97 154 101C157 105 159 110 160 113C161 116 162 120 162 122C162 124 161 128 160 130C159 132 156 136 154 138C152 140 147 144 144 146C141 148 136 150 132 152C128 154 122 156 118 157C114 158 108 159 104 159C100 159 94 158 90 157C86 156 80 154 76 152C72 150 67 148 64 146C61 144 56 140 54 138C52 136 49 132 48 130C47 128 46 124 46 122C46 120 47 116 48 113C49 110 51 105 54 101C57 97 61 92 65 88C69 84 76 79 82 76C88 73 98 70 108 70"
    stroke="black" stroke-width="2" fill="black"/>

  <!-- Eye White  -->
  <ellipse cx="100" cy="115" rx="25" ry="15" fill="white"/>

  <!-- Pupil -->
  <circle cx="100" cy="115" r="10" fill="black"/>

  <!-- Highlight -->
  <circle cx="95" cy="110" r="3" fill="white"/>
</svg>
