<svg width="200" height="200" viewBox="0 0 200 200" fill="none" xmlns="http://www.w3.org/2000/svg">
  <path d="M100 60C105 60 110 62 115 64C120 66 126 70 130 74C134 78 137 83 139 88C141 93 142 99 142 103C142 107 141 112 140 115C139 118 137 122 135 125C133 128 129 132 127 134C125 136 121 139 118 141C115 143 110 146 106 148C102 150 96 152 93 153C90 154 86 155 84 155C82 155 78 154 75 153C72 152 66 150 62 148C58 146 53 143 50 141C47 139 43 136 41 134C39 132 35 128 33 125C31 122 29 118 28 115C27 112 26 107 26 103C26 99 27 93 29 88C31 83 34 78 38 74C42 70 48 66 53 64C58 62 63 60 68 60C73 60 80 62 84 65C88 68 92 72 94 77C96 82 100 82 106 77C112 72 120 60 125 60"
    stroke="black" stroke-width="2" fill="black"/>

  <!-- Left Eye -->
  <ellipse cx="70" cy="100" rx="15" ry="10" fill="white"/>
  <circle cx="70" cy="100" r="5" fill="black"/>

  <!-- Right Eye -->
  <ellipse cx="130" cy="100" rx="15" ry="10" fill="white"/>
  <circle cx="130" cy="100" r="5" fill="black"/>
</svg>
