<svg width="200" height="200" viewBox="0 0 200 200" fill="none" xmlns="http://www.w3.org/2000/svg">
  <path d="M100 60C102 60 105 63 107 65C109 67 113 73 115 76C117 79 118 81 119 83C120 85 121 89 122 91C123 93 124 96 125 97C126 98 127 98 128 98C129 98 131 97 132 96C133 95 136 91 137 89C138 87 140 83 141 81C142 79 144 74 145 72C146 70 148 66 149 64C150 62 151 60 152 58C153 56 156 53 158 52C160 51 162 50 164 50C166 50 168 51 169 52C170 53 171 55 171 56C171 57 170 60 169 62C168 64 165 69 163 72C161 75 159 78 158 80C157 82 155 85 154 87C153 89 152 91 151 92C150 93 149 95 149 96C149 97 150 97 151 97C152 97 155 96 157 95C159 94 162 91 164 89C166 87 168 84 169 82C170 80 171 77 172 75C173 73 174 70 175 68C176 66 177 64 178 63C179 62 180 61 181 61C182 61 183 62 183 63C183 64 182 66 181 68C180 70 176 76 174 80C172 84 170 87 169 89C168 91 166 93 165 94C164 95 163 96 162 97C161 98 159 99 158 99C157 99 155 99 154 99C153 99 151 98 150 97C149 96 147 95 146 94C145 93 143 90 142 88C141 86 139 83 138 81C137 79 136 77 135 77C134 77 133 77 132 78C131 79 129 81 128 83C127 85 126 87 125 89C124 91 122 95 121 98C120 101 118 106 117 109C116 112 114 118 113 121C112 124 111 129 110 131C109 133 108 136 107 137C106 138 105 139 104 139C103 139 102 138 101 137C100 136 99 133 98 131C97 129 96 124 95 121C94 118 92 112 91 109C90 106 88 101 87 98C86 95 84 91 83 89C82 87 81 85 80 83C79 81 77 79 76 78C75 77 74 77 73 77C72 77 71 79 70 81C69 83 67 86 66 88C65 90 63 93 62 94C61 95 59 96 58 97C57 98 55 99 54 99C53 99 51 99 50 99C49 99 47 98 46 97C45 96 44 95 43 94C42 93 40 91 39 89C38 87 36 84 34 80C32 76 28 70 27 68C26 66 25 64 25 63C25 62 26 61 27 61C28 61 29 62 30 63C31 64 32 66 33 68C34 70 35 73 36 75C37 77 38 80 39 82C40 84 42 87 44 89C46 91 49 94 51 95C53 96 56 97 57 97C58 97 59 97 59 96C59 95 58 93 57 92C56 91 55 89 54 87C53 85 51 82 50 80C49 78 47 75 45 72C43 69 40 64 39 62C38 60 37 57 37 56C37 55 38 53 39 52C40 51 42 50 44 50C46 50 48 51 50 52C52 53 55 56 56 58C57 60 58 62 59 64C60 66 62 70 63 72C64 74 66 79 67 81C68 83 70 87 71 89C72 91 75 95 76 96C77 97 79 98 80 98C81 98 82 98 83 97C84 96 85 93 86 91C87 89 88 85 89 83C90 81 91 79 93 76C95 73 99 67 101 65C103 63 106 60 108 60C110 60 100 60 100 60Z"
    stroke="black" stroke-width="2" fill="black"/>
</svg>
